{"asset":{"version":"2.0","generator":"babylon.js glTF exporter for 3dsmax 2018 vCustom.Build.Version"},"scene":0,"scenes":[{"nodes":[0,1,2,3,4,5]}],"nodes":[{"mesh":0,"translation":[0.0222213715,-0.01879704,-0.0144309383],"scale":[0.02982341,0.02982341,0.02982341],"name":"archmodels74_051_001"},{"mesh":1,"translation":[0.0222213715,1.57217622,-0.01443087],"scale":[0.02982341,0.02982341,0.02982341],"name":"archmodels74_051_002"},{"mesh":2,"translation":[0.0222213715,-0.01879704,-0.0144309383],"scale":[0.02982341,0.02982341,0.02982341],"name":"archmodels74_051_003"},{"mesh":3,"translation":[0.0221635643,1.2099117,0.180237859],"scale":[0.02982341,0.02982341,0.02982341],"name":"archmodels74_051_004"},{"mesh":4,"translation":[0.0221635643,1.18237484,0.184309244],"scale":[0.02982341,0.02982341,0.02982341],"name":"archmodels74_051_005"},{"name":"Default light"}],"meshes":[{"primitives":[{"attributes":{"POSITION":1,"NORMAL":2},"indices":0,"material":0}],"name":"archmodels74_051_001"},{"primitives":[{"attributes":{"POSITION":4,"NORMAL":5},"indices":3,"material":1}],"name":"archmodels74_051_002"},{"primitives":[{"attributes":{"POSITION":7,"NORMAL":8},"indices":6,"material":2}],"name":"archmodels74_051_003"},{"primitives":[{"attributes":{"POSITION":10,"NORMAL":11},"indices":9,"material":3}],"name":"archmodels74_051_004"},{"primitives":[{"attributes":{"POSITION":13,"NORMAL":14,"TEXCOORD_0":15},"indices":12,"material":4}],"name":"archmodels74_051_005"}],"accessors":[{"bufferView":0,"componentType":5123,"count":27489,"type":"SCALAR","name":"accessorIndices"},{"bufferView":1,"componentType":5126,"count":27489,"max":[9.839403,61.30115,7.03501463],"min":[-9.84252,1.968504,-5.905513],"type":"VEC3","name":"accessorPositions"},{"bufferView":1,"byteOffset":329868,"componentType":5126,"count":27489,"type":"VEC3","name":"accessorNormals"},{"bufferView":0,"byteOffset":54980,"componentType":5123,"count":153,"type":"SCALAR","name":"accessorIndices"},{"bufferView":1,"byteOffset":659736,"componentType":5126,"count":153,"max":[8.251968,5.677796,5.51181173],"min":[-8.267716,-5.692915,0.0157471411],"type":"VEC3","name":"accessorPositions"},{"bufferView":1,"byteOffset":661572,"componentType":5126,"count":153,"type":"VEC3","name":"accessorNormals"},{"bufferView":0,"byteOffset":55288,"componentType":5123,"count":2004,"type":"SCALAR","name":"accessorIndices"},{"bufferView":1,"byteOffset":663408,"componentType":5126,"count":2004,"max":[9.869034,59.57094,7.08947325],"min":[-9.869019,0.000803411,-5.944882],"type":"VEC3","name":"accessorPositions"},{"bufferView":1,"byteOffset":687456,"componentType":5126,"count":2004,"type":"VEC3","name":"accessorNormals"},{"bufferView":0,"byteOffset":59296,"componentType":5123,"count":576,"type":"SCALAR","name":"accessorIndices"},{"bufferView":1,"byteOffset":711504,"componentType":5126,"count":576,"max":[4.573809,1.68213022,0.398153156],"min":[-4.573811,-1.66578114,-0.08773261],"type":"VEC3","name":"accessorPositions"},{"bufferView":1,"byteOffset":718416,"componentType":5126,"count":576,"type":"VEC3","name":"accessorNormals"},{"bufferView":0,"byteOffset":60448,"componentType":5123,"count":5214,"type":"SCALAR","name":"accessorIndices"},{"bufferView":1,"byteOffset":725328,"componentType":5126,"count":5214,"max":[4.61913729,0.945976138,0.367103219],"min":[-4.662761,-0.776049137,-0.0471089073],"type":"VEC3","name":"accessorPositions"},{"bufferView":1,"byteOffset":787896,"componentType":5126,"count":5214,"type":"VEC3","name":"accessorNormals"},{"bufferView":2,"componentType":5126,"count":5214,"type":"VEC2","name":"accessorUVs"}],"bufferViews":[{"buffer":0,"byteLength":70876,"name":"bufferViewScalar"},{"buffer":0,"byteOffset":70876,"byteLength":850464,"byteStride":12,"name":"bufferViewFloatVec3"},{"buffer":0,"byteOffset":921340,"byteLength":41712,"byteStride":8,"name":"bufferViewFloatVec2"}],"buffers":[{"uri":"60.bin","byteLength":963052}],"materials":[{"pbrMetallicRoughness":{"baseColorFactor":[0.7176471,0.8588236,0.8705883,1.0],"metallicFactor":0.0,"roughnessFactor":0.450053632},"name":"archmodels74_051_001"},{"pbrMetallicRoughness":{"baseColorFactor":[0.03137255,0.03137255,0.03137255,1.0],"metallicFactor":0.0,"roughnessFactor":0.218894824},"name":"archmodels74_051_002"},{"pbrMetallicRoughness":{"baseColorFactor":[0.3803922,0.5254902,0.56078434,1.0],"metallicFactor":0.0,"roughnessFactor":0.450053632},"name":"archmodels74_051_003"},{"pbrMetallicRoughness":{"baseColorFactor":[0.192156881,0.192156881,0.192156881,1.0],"metallicFactor":0.0,"roughnessFactor":0.450053632},"name":"Standard_14"},{"pbrMetallicRoughness":{"baseColorTexture":{"index":0},"metallicFactor":0.0,"roughnessFactor":0.450053632},"name":"Material #2"}],"textures":[{"sampler":0,"source":0,"name":"archmodels74_051_001.jpg"}],"images":[{"uri":"./archmodels74_051_001.jpg"}],"samplers":[{"magFilter":9729,"minFilter":9987}]}