{
  "accessors": [
    {
      "bufferView": 2,
      "componentType": 5126,
      "count": 1326,
      "max": [
        23.560979843139648,
        22.736810684204102,
        109.28579711914062
      ],
      "min": [
        -22.818140029907227,
        -22.016809463500977,
        -2.0124192572671892e-16
      ],
      "type": "VEC3"
    },
    {
      "bufferView": 2,
      "byteOffset": 15912,
      "componentType": 5126,
      "count": 1326,
      "max": [
        0.99811381101608276,
        0.99947339296340942,
        0.88641798496246338
      ],
      "min": [
        -0.99950456619262695,
        -0.99543285369873047,
        -0.85864502191543579
      ],
      "type": "VEC3"
    },
    {
      "bufferView": 3,
      "componentType": 5126,
      "count": 1326,
      "max": [
        0.99996757507324219,
        1,
        0.99965304136276245,
        1
      ],
      "min": [
        -0.99996757507324219,
        -1,
        -0.99897575378417969,
        -1
      ],
      "type": "VEC4"
    },
    {
      "bufferView": 1,
      "componentType": 5126,
      "count": 1326,
      "max": [
        0.99853515625,
        9.96875
      ],
      "min": [
        0.00048971176147460938,
        0
      ],
      "type": "VEC2"
    },
    {
      "bufferView": 1,
      "byteOffset": 10608,
      "componentType": 5126,
      "count": 1326,
      "max": [
        0.68701171875,
        0.99193572998046875
      ],
      "min": [
        0.00806427001953125,
        0.02294921875
      ],
      "type": "VEC2"
    },
    {
      "bufferView": 0,
      "componentType": 5125,
      "count": 5157,
      "max": [
        1325
      ],
      "min": [
        0
      ],
      "type": "SCALAR"
    },
    {
      "bufferView": 2,
      "byteOffset": 31824,
      "componentType": 5126,
      "count": 3600,
      "max": [
        30.60736083984375,
        29.863700866699219,
        115.11228942871094
      ],
      "min": [
        -30.60236930847168,
        -29.467170715332031,
        31.103139877319336
      ],
      "type": "VEC3"
    },
    {
      "bufferView": 2,
      "byteOffset": 75024,
      "componentType": 5126,
      "count": 3600,
      "max": [
        0.99984574317932129,
        0.99975121021270752,
        0.9999692440032959
      ],
      "min": [
        -0.99848610162734985,
        -0.99876350164413452,
        -0.99922531843185425
      ],
      "type": "VEC3"
    },
    {
      "bufferView": 1,
      "byteOffset": 21216,
      "componentType": 5126,
      "count": 3600,
      "max": [
        1,
        0
      ],
      "min": [
        0,
        -1
      ],
      "type": "VEC2"
    },
    {
      "bufferView": 1,
      "byteOffset": 50016,
      "componentType": 5126,
      "count": 3600,
      "max": [
        0.9892578125,
        0.99193572998046875
      ],
      "min": [
        0.00806427001953125,
        0.01708984375
      ],
      "type": "VEC2"
    },
    {
      "bufferView": 0,
      "byteOffset": 20628,
      "componentType": 5125,
      "count": 5400,
      "max": [
        3599
      ],
      "min": [
        0
      ],
      "type": "SCALAR"
    },
    {
      "bufferView": 2,
      "byteOffset": 118224,
      "componentType": 5126,
      "count": 603,
      "max": [
        25.711669921875,
        25.97661018371582,
        82.928993225097656
      ],
      "min": [
        -25.492080688476562,
        -23.743930816650391,
        -1.914906706796906e-16
      ],
      "type": "VEC3"
    },
    {
      "bufferView": 2,
      "byteOffset": 125460,
      "componentType": 5126,
      "count": 603,
      "max": [
        0.99984484910964966,
        0.99984514713287354,
        0.98714596033096313
      ],
      "min": [
        -0.99876135587692261,
        -0.98927682638168335,
        -0.82624191045761108
      ],
      "type": "VEC3"
    },
    {
      "bufferView": 3,
      "byteOffset": 21216,
      "componentType": 5126,
      "count": 603,
      "max": [
        0.99675452709197998,
        1,
        0.99887466430664062,
        1
      ],
      "min": [
        -0.99990612268447876,
        -1,
        -0.9976997971534729,
        -1
      ],
      "type": "VEC4"
    },
    {
      "bufferView": 1,
      "byteOffset": 78816,
      "componentType": 5126,
      "count": 603,
      "max": [
        0.99853515625,
        7.546875
      ],
      "min": [
        0.00048971176147460938,
        0
      ],
      "type": "VEC2"
    },
    {
      "bufferView": 1,
      "byteOffset": 83640,
      "componentType": 5126,
      "count": 603,
      "max": [
        0.9443359375,
        0.99193572998046875
      ],
      "min": [
        0.00806427001953125,
        0.0078125
      ],
      "type": "VEC2"
    },
    {
      "bufferView": 0,
      "byteOffset": 42228,
      "componentType": 5125,
      "count": 1806,
      "max": [
        602
      ],
      "min": [
        0
      ],
      "type": "SCALAR"
    },
    {
      "bufferView": 2,
      "byteOffset": 132696,
      "componentType": 5126,
      "count": 2520,
      "max": [
        33.046138763427734,
        32.325588226318359,
        88.135093688964844
      ],
      "min": [
        -31.395790100097656,
        -30.874649047851562,
        23.211080551147461
      ],
      "type": "VEC3"
    },
    {
      "bufferView": 2,
      "byteOffset": 162936,
      "componentType": 5126,
      "count": 2520,
      "max": [
        0.99968945980072021,
        0.99987673759460449,
        0.99947363138198853
      ],
      "min": [
        -0.99959659576416016,
        -0.99944126605987549,
        -0.99947136640548706
      ],
      "type": "VEC3"
    },
    {
      "bufferView": 1,
      "byteOffset": 88464,
      "componentType": 5126,
      "count": 2520,
      "max": [
        1,
        0
      ],
      "min": [
        0,
        -1
      ],
      "type": "VEC2"
    },
    {
      "bufferView": 1,
      "byteOffset": 108624,
      "componentType": 5126,
      "count": 2520,
      "max": [
        0.99169921875,
        0.99193572998046875
      ],
      "min": [
        0.00806427001953125,
        0.03076171875
      ],
      "type": "VEC2"
    },
    {
      "bufferView": 0,
      "byteOffset": 49452,
      "componentType": 5125,
      "count": 3780,
      "max": [
        2519
      ],
      "min": [
        0
      ],
      "type": "SCALAR"
    }
  ],
  "asset": {
    "extras": {
      "author": "Igor_K. (https://sketchfab.com/Igor_K.)",
      "license": "CC-BY-4.0 (http://creativecommons.org/licenses/by/4.0/)",
      "source": "https://sketchfab.com/3d-models/trees-low-poly-1d2dcca2ccb1496c85b7cc5789a2a261",
      "title": "Trees Low Poly"
    },
    "generator": "Sketchfab-10.3.0",
    "version": "2.0"
  },
  "bufferViews": [
    {
      "buffer": 0,
      "byteLength": 64572,
      "byteOffset": 0,
      "name": "floatBufferViews",
      "target": 34963
    },
    {
      "buffer": 0,
      "byteLength": 128784,
      "byteOffset": 64572,
      "byteStride": 8,
      "name": "floatBufferViews",
      "target": 34962
    },
    {
      "buffer": 0,
      "byteLength": 193176,
      "byteOffset": 193356,
      "byteStride": 12,
      "name": "floatBufferViews",
      "target": 34962
    },
    {
      "buffer": 0,
      "byteLength": 30864,
      "byteOffset": 386532,
      "byteStride": 16,
      "name": "floatBufferViews",
      "target": 34962
    }
  ],
  "buffers": [
    {
      "byteLength": 417396,
      "uri": "scene.bin"
    }
  ],
  "images": [
    {
      "uri": "textures/bark_baseColor.png"
    },
    {
      "uri": "textures/bark_metallicRoughness.png"
    },
    {
      "uri": "textures/bark_normal.png"
    },
    {
      "uri": "textures/leaves_baseColor.png"
    }
  ],
  "materials": [
    {
      "doubleSided": true,
      "emissiveFactor": [
        0,
        0,
        0
      ],
      "name": "bark",
      "normalTexture": {
        "index": 2,
        "scale": 1,
        "texCoord": 0
      },
      "pbrMetallicRoughness": {
        "baseColorFactor": [
          1,
          1,
          1,
          1
        ],
        "baseColorTexture": {
          "index": 0,
          "texCoord": 0
        },
        "metallicFactor": 0,
        "metallicRoughnessTexture": {
          "index": 1,
          "texCoord": 0
        },
        "roughnessFactor": 1
      }
    },
    {
      "alphaMode": "BLEND",
      "doubleSided": true,
      "emissiveFactor": [
        0,
        0,
        0
      ],
      "name": "leaves",
      "pbrMetallicRoughness": {
        "baseColorFactor": [
          1,
          1,
          1,
          1
        ],
        "baseColorTexture": {
          "index": 3,
          "texCoord": 0
        },
        "metallicFactor": 0,
        "roughnessFactor": 0.68009911287175084
      }
    }
  ],
  "meshes": [
    {
      "name": "tree4_bark_0",
      "primitives": [
        {
          "attributes": {
            "NORMAL": 1,
            "POSITION": 0,
            "TANGENT": 2,
            "TEXCOORD_0": 3,
            "TEXCOORD_1": 4
          },
          "indices": 5,
          "material": 0,
          "mode": 4
        }
      ]
    },
    {
      "name": "tree4_leaves_0",
      "primitives": [
        {
          "attributes": {
            "NORMAL": 7,
            "POSITION": 6,
            "TEXCOORD_0": 8,
            "TEXCOORD_1": 9
          },
          "indices": 10,
          "material": 1,
          "mode": 4
        }
      ]
    },
    {
      "name": "tree6_bark_0",
      "primitives": [
        {
          "attributes": {
            "NORMAL": 12,
            "POSITION": 11,
            "TANGENT": 13,
            "TEXCOORD_0": 14,
            "TEXCOORD_1": 15
          },
          "indices": 16,
          "material": 0,
          "mode": 4
        }
      ]
    },
    {
      "name": "tree6_leaves_0",
      "primitives": [
        {
          "attributes": {
            "NORMAL": 18,
            "POSITION": 17,
            "TEXCOORD_0": 19,
            "TEXCOORD_1": 20
          },
          "indices": 21,
          "material": 1,
          "mode": 4
        }
      ]
    }
  ],
  "nodes": [
    {
      "children": [
        1
      ],
      "name": "RootNode (gltf orientation matrix)",
      "rotation": [
        -0.70710678118654746,
        -0,
        -0,
        0.70710678118654757
      ]
    },
    {
      "children": [
        2
      ],
      "name": "RootNode (model correction matrix)"
    },
    {
      "children": [
        3
      ],
      "matrix": [
        1,
        0,
        0,
        0,
        0,
        0,
        1,
        0,
        0,
        -1,
        0,
        0,
        0,
        0,
        0,
        1
      ],
      "name": "1ab532bcfaa2432191aec41592077bb5.fbx"
    },
    {
      "children": [
        4,
        7
      ],
      "name": "RootNode"
    },
    {
      "children": [
        5,
        6
      ],
      "matrix": [
        9,
        0,
        0,
        0,
        0,
        -1.4662861145264827e-06,
        -8.999999999999881,
        0,
        0,
        8.999999999999881,
        -1.4662861145264827e-06,
        0,
        0,
        0,
        418.687255859375,
        1
      ],
      "name": "tree4"
    },
    {
      "mesh": 0,
      "name": "tree4_bark_0"
    },
    {
      "mesh": 1,
      "name": "tree4_leaves_0"
    },
    {
      "children": [
        8,
        9
      ],
      "matrix": [
        9,
        0,
        0,
        0,
        0,
        -1.4662861145264827e-06,
        -8.999999999999881,
        0,
        0,
        8.999999999999881,
        -1.4662861145264827e-06,
        0,
        0,
        0,
        -125.51510620117188,
        1
      ],
      "name": "tree6"
    },
    {
      "mesh": 2,
      "name": "tree6_bark_0"
    },
    {
      "mesh": 3,
      "name": "tree6_leaves_0"
    }
  ],
  "samplers": [
    {
      "magFilter": 9729,
      "minFilter": 9987,
      "wrapS": 10497,
      "wrapT": 10497
    }
  ],
  "scene": 0,
  "scenes": [
    {
      "name": "OSG_Scene",
      "nodes": [
        0
      ]
    }
  ],
  "textures": [
    {
      "sampler": 0,
      "source": 0
    },
    {
      "sampler": 0,
      "source": 1
    },
    {
      "sampler": 0,
      "source": 2
    },
    {
      "sampler": 0,
      "source": 3
    }
  ]
}

