{"asset":{"version":"2.0","generator":"babylon.js glTF exporter for 3dsmax 2018 vCustom.Build.Version"},"scene":0,"scenes":[{"nodes":[0,1,2,3,4]}],"nodes":[{"mesh":0,"translation":[0.0,0.612229943,-9.462237E-11],"name":"Arch43_056_obj_02"},{"mesh":1,"translation":[0.0007016529,0.112811089,0.00270573725],"name":"Arch43_056_obj_03"},{"mesh":2,"translation":[0.0007016529,0.00413145823,-0.00206675846],"name":"Arch43_056_obj_04"},{"mesh":3,"translation":[0.000399248878,0.343460053,8.25531E-05],"name":"Arch43_056_obj_01"},{"name":"Default light"}],"meshes":[{"primitives":[{"attributes":{"POSITION":1,"NORMAL":2,"TEXCOORD_0":3},"indices":0,"material":0}],"name":"Arch43_056_obj_02"},{"primitives":[{"attributes":{"POSITION":5,"NORMAL":6},"indices":4,"material":1}],"name":"Arch43_056_obj_03"},{"primitives":[{"attributes":{"POSITION":8,"NORMAL":9,"TEXCOORD_0":10},"indices":7,"material":1}],"name":"Arch43_056_obj_04"},{"primitives":[{"attributes":{"POSITION":12,"NORMAL":13,"TEXCOORD_0":14},"indices":11,"material":0}],"name":"Arch43_056_obj_01"}],"accessors":[{"bufferView":0,"componentType":5123,"count":30786,"type":"SCALAR","name":"accessorIndices"},{"bufferView":1,"componentType":5126,"count":30786,"max":[1.158722,0.1361942,0.410559565],"min":[-1.158722,-0.136194259,-0.410559565],"type":"VEC3","name":"accessorPositions"},{"bufferView":1,"byteOffset":369432,"componentType":5126,"count":30786,"type":"VEC3","name":"accessorNormals"},{"bufferView":2,"componentType":5126,"count":30786,"type":"VEC2","name":"accessorUVs"},{"bufferView":0,"byteOffset":61572,"componentType":5123,"count":2952,"type":"SCALAR","name":"accessorIndices"},{"bufferView":1,"byteOffset":738864,"componentType":5126,"count":2952,"max":[1.12312484,0.110903412,0.3742986],"min":[-1.123125,-0.110903427,-0.374298573],"type":"VEC3","name":"accessorPositions"},{"bufferView":1,"byteOffset":774288,"componentType":5126,"count":2952,"type":"VEC3","name":"accessorNormals"},{"bufferView":0,"byteOffset":67476,"componentType":5123,"count":528,"type":"SCALAR","name":"accessorIndices"},{"bufferView":1,"byteOffset":809712,"componentType":5126,"count":528,"max":[1.1245544,0.00413147034,0.330310225],"min":[-1.12455428,-0.00413147034,-0.330310225],"type":"VEC3","name":"accessorPositions"},{"bufferView":1,"byteOffset":816048,"componentType":5126,"count":528,"type":"VEC3","name":"accessorNormals"},{"bufferView":2,"byteOffset":246288,"componentType":5126,"count":528,"type":"VEC2","name":"accessorUVs"},{"bufferView":0,"byteOffset":68532,"componentType":5123,"count":30990,"type":"SCALAR","name":"accessorIndices"},{"bufferView":1,"byteOffset":822384,"componentType":5126,"count":30990,"max":[1.15505111,0.1387199,0.408262372],"min":[-1.15505111,-0.1387199,-0.408262372],"type":"VEC3","name":"accessorPositions"},{"bufferView":1,"byteOffset":1194264,"componentType":5126,"count":30990,"type":"VEC3","name":"accessorNormals"},{"bufferView":2,"byteOffset":250512,"componentType":5126,"count":30990,"type":"VEC2","name":"accessorUVs"}],"bufferViews":[{"buffer":0,"byteLength":130512,"name":"bufferViewScalar"},{"buffer":0,"byteOffset":130512,"byteLength":1566144,"byteStride":12,"name":"bufferViewFloatVec3"},{"buffer":0,"byteOffset":1696656,"byteLength":498432,"byteStride":8,"name":"bufferViewFloatVec2"}],"buffers":[{"uri":"2738.bin","byteLength":2195088}],"materials":[{"pbrMetallicRoughness":{"baseColorTexture":{"index":0},"metallicFactor":0.0,"roughnessFactor":0.450053632},"name":"Material #231"},{"pbrMetallicRoughness":{"baseColorFactor":[0.92549026,0.92549026,0.92549026,1.0],"metallicFactor":0.0,"roughnessFactor":0.450053632},"name":"Material #232"}],"textures":[{"sampler":0,"source":0,"name":"fabric_color.jpg"}],"images":[{"uri":"./fabric_color.jpg"}],"samplers":[{"magFilter":9729,"minFilter":9987}]}